<svg xmlns="http://www.w3.org/2000/svg" viewBox="0 0 500 500"><g id="freepik--background-complete--inject-52"><rect y="382.4" width="500" height="0.25" style="fill:#ebebeb"></rect><rect x="416.78" y="398.49" width="33.12" height="0.25" style="fill:#ebebeb"></rect><rect x="322.53" y="401.21" width="8.69" height="0.25" style="fill:#ebebeb"></rect><rect x="396.59" y="389.21" width="19.19" height="0.25" style="fill:#ebebeb"></rect><rect x="52.46" y="390.89" width="43.19" height="0.25" style="fill:#ebebeb"></rect><rect x="104.56" y="390.89" width="6.33" height="0.25" style="fill:#ebebeb"></rect><rect x="131.47" y="395.11" width="93.68" height="0.25" style="fill:#ebebeb"></rect><path d="M237,337.8H43.91a5.71,5.71,0,0,1-5.7-5.71V60.66A5.71,5.71,0,0,1,43.91,55H237a5.71,5.71,0,0,1,5.71,5.71V332.09A5.71,5.71,0,0,1,237,337.8ZM43.91,55.2a5.46,5.46,0,0,0-5.45,5.46V332.09a5.46,5.46,0,0,0,5.45,5.46H237a5.47,5.47,0,0,0,5.46-5.46V60.66A5.47,5.47,0,0,0,237,55.2Z" style="fill:#ebebeb"></path><path d="M453.31,337.8H260.21a5.72,5.72,0,0,1-5.71-5.71V60.66A5.72,5.72,0,0,1,260.21,55h193.1A5.71,5.71,0,0,1,459,60.66V332.09A5.71,5.71,0,0,1,453.31,337.8ZM260.21,55.2a5.47,5.47,0,0,0-5.46,5.46V332.09a5.47,5.47,0,0,0,5.46,5.46h193.1a5.47,5.47,0,0,0,5.46-5.46V60.66a5.47,5.47,0,0,0-5.46-5.46Z" style="fill:#ebebeb"></path><path d="M418.85,262.61l30,117.39H422.9l-4-117.39m-4-27.63L420,383h32.67L414.9,235Z" style="fill:#e0e0e0"></path><polygon points="424.02 382.9 339.58 382.9 358.59 167.65 443.02 167.65 424.02 382.9" style="fill:#e6e6e6"></polygon><polygon points="437.54 173 419.43 378 345.43 378 348.55 342.66 351.12 314.93 359 226.93 359 226.9 363.54 173 437.54 173" style="fill:#f5f5f5"></polygon><polygon points="388.99 173 388.96 173.12 351.01 314.93 358.78 226.93 373.2 173.13 373.23 173 388.99 173" style="fill:#fff"></polygon><polygon points="400.72 173 400.69 173.12 345.86 378 345.43 378 348.55 342.66 393.94 173.12 393.97 173 400.72 173" style="fill:#fff"></polygon><path d="M107.39,294.5c-2.31-3.8-6.11-.5-6.11-.5.55-7.28-6.15-12.26-6.15-12.26s7.78,0,8.87-7.43-2.72-4-6.28-4-7.29,10.36-2.59,16.22,3.44,15.86-7.42,25.48a21,21,0,0,0-5.66,8.84c.82-8.83,1.28-21.28-1.32-29.59-4.42-14.11,4-17.91,6.44-25s-6.44-13-6.44-13,8.34-3.8,4.27-8.14S72.51,241.34,72.51,247s5.7,7.85,5.7,7.85,6.52,6.78,6.52,10.31-6.52,11.13-6.52,11.13,3-6.5-3-6.78-7.87,7.6-5.43,11.12,6.51.55,6.51.55.48,7.6,1.87,12.21c.61,2,.32,10-.19,18.28a20.4,20.4,0,0,0-5.29-7.85c-10.86-9.61-12.12-19.61-7.41-25.47s1-16.27-2.59-16.22-7.37-3.41-6.28,4,8.87,7.43,8.87,7.43-6.7,5-6.16,12.26c0,0-3.8-3.31-6.11.49-4.12,6.79,5.43,11,7,7.66,0,0,20.24,14.33,15.36,35l1.13,1.67-.24,2.67,1.59-.68,1.8,2.66a60.3,60.3,0,0,0,.46,9L85,337.11c-4.89-20.63,15.36-35,15.36-35C102,305.49,111.51,301.28,107.39,294.5Z" style="fill:#e0e0e0"></path><path d="M107.39,294.5c-2.31-3.8-6.11-.5-6.11-.5.55-7.28-6.15-12.26-6.15-12.26s7.78,0,8.87-7.43-2.72-4-6.28-4-7.29,10.36-2.59,16.22,3.44,15.86-7.42,25.48a21,21,0,0,0-5.66,8.84c.82-8.83,1.28-21.28-1.32-29.59-4.42-14.11,4-17.91,6.44-25s-6.44-13-6.44-13,8.34-3.8,4.27-8.14S72.51,241.34,72.51,247s5.7,7.85,5.7,7.85,6.52,6.78,6.52,10.31-6.52,11.13-6.52,11.13,3-6.5-3-6.78-7.87,7.6-5.43,11.12,6.51.55,6.51.55.48,7.6,1.87,12.21c.61,2,.32,10-.19,18.28a20.4,20.4,0,0,0-5.29-7.85c-10.86-9.61-12.12-19.61-7.41-25.47s1-16.27-2.59-16.22-7.37-3.41-6.28,4,8.87,7.43,8.87,7.43-6.7,5-6.16,12.26c0,0-3.8-3.31-6.11.49-4.12,6.79,5.43,11,7,7.66,0,0,20.24,14.33,15.36,35l1.13,1.67-.24,2.67,1.59-.68,1.8,2.66a60.3,60.3,0,0,0,.46,9L85,337.11c-4.89-20.63,15.36-35,15.36-35C102,305.49,111.51,301.28,107.39,294.5Z" style="fill:#e0e0e0;opacity:0.2;isolation:isolate"></path><polygon points="103.43 382.49 57.06 382.49 52.05 331.72 108.43 331.72 103.43 382.49" style="fill:#e6e6e6"></polygon><rect x="49.58" y="326.12" width="61.33" height="11.2" style="fill:#f0f0f0"></rect></g><g id="freepik--Shadow--inject-52"><ellipse id="freepik--path--inject-52" cx="250" cy="416.24" rx="193.89" ry="11.32" style="fill:#f5f5f5"></ellipse></g><g id="freepik--Device--inject-52"><rect x="102.88" y="89.02" width="176.93" height="318.22" rx="9.75" style="fill:#FFD524"></rect><rect x="102.88" y="89.02" width="176.93" height="318.22" rx="9.75" style="opacity:0.2;isolation:isolate"></rect><rect x="110.38" y="89.02" width="176.93" height="318.22" rx="9.75" style="fill:#FFD524"></rect><path d="M281,99.69V396a3.72,3.72,0,0,1-4,4H120.34c-2.24,0-3.34-1.39-3.34-3.63v-297c0-1.94.84-3.33,2.78-3.33h39.16a2.61,2.61,0,0,1,2.52,1.61l1.62,3.82a2.62,2.62,0,0,0,2.53,1.57h66.67a2.66,2.66,0,0,0,2.53-1.62l1.62-3.81A2.58,2.58,0,0,1,239,96h38.6A3.38,3.38,0,0,1,281,99.69Z" style="fill:#263238"></path><rect x="135.02" y="104.91" width="2.04" height="2.72" transform="translate(272.07 212.54) rotate(180)" style="fill:#fff;opacity:0.6000000000000001;isolation:isolate"></rect><rect x="131.7" y="104.01" width="2.04" height="3.62" transform="translate(265.43 211.64) rotate(180)" style="fill:#fff;opacity:0.6000000000000001;isolation:isolate"></rect><rect x="128.37" y="103.1" width="2.04" height="4.53" transform="translate(258.79 210.73) rotate(180)" style="fill:#fff;opacity:0.6000000000000001;isolation:isolate"></rect><rect x="125.05" y="102.19" width="2.04" height="5.44" transform="translate(252.14 209.82) rotate(180)" style="fill:#fff;opacity:0.6000000000000001;isolation:isolate"></rect><rect x="261.94" y="103.92" width="1.21" height="2.72" style="fill:#fff;opacity:0.6000000000000001;isolation:isolate"></rect><rect x="263.98" y="102.93" width="9.62" height="4.7" transform="translate(537.58 210.56) rotate(180)" style="fill:#fff;opacity:0.6000000000000001;isolation:isolate"></rect><circle cx="195.16" cy="96.08" r="2.26" style="fill:#fff;opacity:0.6000000000000001;isolation:isolate"></circle><path d="M202,96.08a1.45,1.45,0,1,1-1.45-1.45A1.45,1.45,0,0,1,202,96.08Z" style="fill:#fff;opacity:0.6000000000000001;isolation:isolate"></path><rect x="117" y="115" width="164" height="271.29" style="fill:#fff"></rect><rect x="117" y="115" width="164" height="46" style="fill:#FFD524"></rect><rect x="117" y="115" width="164" height="46" style="fill:#fff;opacity:0.4;isolation:isolate"></rect><path d="M209.39,173.19s-5.84.55-8.2,7.61a18.22,18.22,0,0,0,1.35,14.59c1,1.7-4,7.2,2.82,12.6s2.91,11.76,2.91,11.76L232.06,223a7.13,7.13,0,0,0,3.38-6.67c-.21-4.81-3.59-6.24-3.69-9.73s2.15-6.28,1.23-10.93-4.62-4.23-3.69-9.11c.5-2.65,1.46-8.42-3.08-12.05C222.39,171.47,213.42,169.91,209.39,173.19Z" style="fill:#2e353a"></path><path d="M246.81,233c-5.15,2.56-14.61-4.81-19.66-9.31-2.06-1.83-3.38-3.18-3.38-3.18l2.49-7.05,1-2.7c3.3,2.06,12.85,14.26,15.7,14.26s-3.08-19.51-3.08-19.51l4-1.36S256.59,228.11,246.81,233Z" style="fill:#ebb376"></path><path d="M227.15,223.65c-2.06-1.83-3.38-3.18-3.38-3.18l2.49-7.05A21.49,21.49,0,0,1,227.15,223.65Z" style="opacity:0.2;isolation:isolate"></path><polygon points="239.04 380.89 232.95 381.7 230.9 374.78 237.19 372.55 239.04 380.89" style="opacity:0.2;isolation:isolate"></polygon><polygon points="203.83 383.07 197.69 382.8 196.87 375.63 203.46 374.52 203.83 383.07" style="opacity:0.2;isolation:isolate"></polygon><path d="M239.56,376.56l-9,1.58c-9.06-22.58-15.51-41.43-20.06-57.08-2.45-8.44-3.91-15.94-5.38-22.6L206,323v56H196c-22.19-106-6.47-130.06-6.47-130.06l26.55-4.56a119.33,119.33,0,0,1,2.22,14.84l1.2,8.77,10.37,53.58Z" style="fill:#FFD524"></path><polygon points="229.17 377.03 240.31 373.34 240.16 378.08 230.94 381.02 229.17 377.03" style="fill:#FFD524"></polygon><polygon points="194.78 377.55 206.39 375.85 205.42 380.49 195.83 381.78 194.78 377.55" style="fill:#FFD524"></polygon><polygon points="190.69 244.97 189.16 249.33 217.56 253.03 217.16 249.19 190.69 244.97" style="fill:#2e353a"></polygon><polygon points="210.06 252.05 204.33 251.31 204.81 247.22 210.71 247.91 210.06 252.05" style="fill:#fff"></polygon><rect x="197.34" y="245.53" width="1.34" height="6.85" transform="translate(40.8 -27.58) rotate(8.88)" style="fill:#FFD524"></rect><polygon points="215.44 254.16 213.88 253.92 214.44 247.08 215.76 247.28 215.44 254.16" style="fill:#FFD524"></polygon><path d="M217.16,249.18,190.69,245a96,96,0,0,0,2.66-19.92c.09-2.67.09-5.67,0-9.18q-.08-2.81-.22-6.06c-.07-1.65-.15-3.41-.26-5.26a79.53,79.53,0,0,1,11.55.46,86.24,86.24,0,0,1,12,2.08c5.07,1.4,10.74,3.63,10.74,3.63s.77.43-.24,5.95C226,221.85,223.41,231.13,217.16,249.18Z" style="fill:#FFD524"></path><path d="M227,216.67c-1,5.18-3.58,14.46-9.83,32.52L190.69,245a95.79,95.79,0,0,0,2.66-19.9c.06-2,.09-4.23.06-6.71,0-.8,0-1.62,0-2.48-.05-1.87-.12-3.88-.22-6.06v-.18c-.08-1.6-.15-3.29-.26-5.08,1,0,2-.05,3,0a78.37,78.37,0,0,1,8.52.5,84.68,84.68,0,0,1,12,2.09c3.12.85,6.46,2,8.58,2.8h0c1.32.49,2.16.82,2.16.82S228,211.15,227,216.67Z" style="fill:#fff;opacity:0.6000000000000001;isolation:isolate"></path><path d="M215.84,208.12c.63,2.92-3.15,4.11-3.15,4.11-6.18-2.64-7.33-5.93-7.33-5.93C210.52,203.61,209,196,209,196l1,.52,6.27,3.11a23.64,23.64,0,0,0-1.21,3.15,0,0,0,0,0,0,0C213.73,207.48,215.84,208.12,215.84,208.12Z" style="fill:#ebb376"></path><path d="M210.51,321.06c-2.45-8.44-4.36-15.94-5.83-22.6a206.94,206.94,0,0,1,1.71-23.58S210.28,305.29,210.51,321.06Z" style="opacity:0.2;isolation:isolate"></path><path d="M225.06,209.9c-.12.61-1.55,2.31-4.85,3.19-.48.13-1,.23-1.55.33a22.48,22.48,0,0,1-6.46,0,31.21,31.21,0,0,1-8-2.23c-.45-.19-.87-.39-1.29-.58-4.47-2.14-7.37-4.83-7-6.07,2.21,0,4.43.11,6.63.31.47,0,.94.08,1.41.14l.48,0a84.68,84.68,0,0,1,12,2.09c.64.17,1.29.36,1.93.56l1.26.39c2.06.65,4,1.34,5.39,1.85Z" style="fill:#ebb376"></path><path d="M204.19,211.16c-.45-.19-.87-.39-1.29-.58a11,11,0,0,0-.36-5.76c.47,0,.94.08,1.41.14A15.89,15.89,0,0,1,204.19,211.16Z" style="fill:#2e353a"></path><path d="M220.21,213.09c-.48.13-1,.23-1.55.33a12.05,12.05,0,0,0-.26-5.76l1.26.39A11.39,11.39,0,0,1,220.21,213.09Z" style="fill:#2e353a"></path><path d="M216.34,199.63a23.64,23.64,0,0,0-1.21,3.15,10.54,10.54,0,0,1-5.06-6.26Z" style="opacity:0.2;isolation:isolate"></path><path d="M216,176c7,.07,9.2,3.84,9.64,11.05.55,9-1.52,15.39-10.24,13.37C203.58,197.66,204.41,175.85,216,176Z" style="fill:#ebb376"></path><path d="M221.15,186.58a14.76,14.76,0,0,0,2,2.92,1.91,1.91,0,0,1-1.85.77Z" style="fill:#d58745"></path><path d="M216.87,186c0,.58-.3,1-.68,1s-.7-.45-.71-1,.3-1,.68-1S216.86,185.39,216.87,186Z" style="fill:#2e353a"></path><path d="M216,185l1.25-.5S216.64,185.52,216,185Z" style="fill:#2e353a"></path><path d="M224,185.75c0,.58-.3,1.05-.68,1.05s-.7-.46-.71-1,.3-1,.68-1.05S224,185.18,224,185.75Z" style="fill:#2e353a"></path><path d="M223.15,184.75l1.24-.51S223.78,185.3,223.15,184.75Z" style="fill:#2e353a"></path><path d="M216.85,181.14a3.63,3.63,0,0,0-3,1" style="fill:none;stroke:#2e353a;stroke-linecap:round;stroke-linejoin:round;stroke-width:0.594463px"></path><path d="M221.94,180.89a3.27,3.27,0,0,1,2.78.61" style="fill:none;stroke:#2e353a;stroke-linecap:round;stroke-linejoin:round;stroke-width:0.594463px"></path><path d="M220.25,193a18.13,18.13,0,0,0-.84,2.42l-.45,0c-2-.23-2.9-1-3.25-1.8a2.67,2.67,0,0,1-.19-1.23,2.6,2.6,0,0,1,.14-.7,9.77,9.77,0,0,0,3.9,1.27C220,193,220.25,193,220.25,193Z" style="fill:#2e353a"></path><path d="M219.56,192.93l-.27.7c-1.91-.22-3.23-.63-3.77-1.27a2.6,2.6,0,0,1,.14-.7A9.77,9.77,0,0,0,219.56,192.93Z" style="fill:#fff"></path><path d="M219,195.39c-2-.23-2.9-1-3.25-1.8a6.83,6.83,0,0,1,2.21.7A2.46,2.46,0,0,1,219,195.39Z" style="fill:#de5753"></path><path d="M208.26,187.67s3.32-5.71,2.88-10.15c0,0,13.91-5.51,14.45,8.56,0,0,1.48-12.48-10.54-12.88s-12.14,17.18-6,22.49C209.06,195.69,206.2,191.25,208.26,187.67Z" style="fill:#2e353a"></path><path d="M209.38,189.16a3.07,3.07,0,0,0-3.27-2.84c-2.17.22-3.25,4.66,2.13,5.78C209,192.26,209.46,191.51,209.38,189.16Z" style="fill:#ebb376"></path><path d="M210.47,177.3c-.27.24,1.53,1.37,1.64,1.42a6.93,6.93,0,0,0,4.18.18c1.5-.28,3.71-1.12,4.92.29,1.06,1.22.3,3.13,1.45,4.3,1.3,1.32,3.73.59,4.57,2.48a7.4,7.4,0,0,1,.5,3.74c2.47-2.81,1.64-7.37.11-10.36C224.47,172.79,215.65,172.51,210.47,177.3Z" style="fill:#2e353a"></path><path d="M227.48,184.91a5.74,5.74,0,0,0-5.27,0,.2.2,0,0,0-.08.08,2.09,2.09,0,0,0-1.75,0,.29.29,0,0,0-.11-.11,5.43,5.43,0,0,0-2.8-.64,4.49,4.49,0,0,0-2.81.89s0,.31,0,.31H209a3.26,3.26,0,0,0-1.57.28.4.4,0,0,0-.09.64h0a.38.38,0,0,0,.5,0A1.94,1.94,0,0,1,209,186h5.9c.23,1.6.64,2.82,2.59,2.82,1.77,0,2.34-1,2.9-2.81.21-.14,1.08-.69,1.72,0,.37,1.59,1,2.74,2.75,2.74s2.18-1,2.45-3.13a.56.56,0,0,1,0-.13h0c.12,0,.25,0,.32-.1A.32.32,0,0,0,227.48,184.91Z" style="fill:#FFD524"></path><path d="M227.48,184.91a5.74,5.74,0,0,0-5.27,0,.2.2,0,0,0-.08.08,2.09,2.09,0,0,0-1.75,0,.29.29,0,0,0-.11-.11,5.43,5.43,0,0,0-2.8-.64,4.49,4.49,0,0,0-2.81.89s0,.31,0,.31H209a3.26,3.26,0,0,0-1.57.28.4.4,0,0,0-.09.64h0a.38.38,0,0,0,.5,0A1.94,1.94,0,0,1,209,186h5.9c.23,1.6.64,2.82,2.59,2.82,1.77,0,2.34-1,2.9-2.81.21-.14,1.08-.69,1.72,0,.37,1.59,1,2.74,2.75,2.74s2.18-1,2.45-3.13a.56.56,0,0,1,0-.13h0c.12,0,.25,0,.32-.1A.32.32,0,0,0,227.48,184.91Z" style="opacity:0.30000000000000004;isolation:isolate"></path><path d="M217.85,184.91l-1.22,3.22s-1.2-.12-1.28-2.48A3.06,3.06,0,0,1,217.85,184.91Z" style="fill:#FFD524"></path><path d="M225.23,184.91,224,188.13s-1.2-.12-1.28-2.48A3.06,3.06,0,0,1,225.23,184.91Z" style="fill:#FFD524"></path><path d="M239.84,205.48s-1.94-1.63-1.84-2.7,7.18-6.32,8.21-6.26,3.38,1.49,3.58,2.21-5.94,5.39-5.94,5.39Z" style="fill:#ebb376"></path><path d="M208.15,224.69l3-4.08a.67.67,0,0,1,1.18.21l1.39,4.9a.67.67,0,0,0,.43.45L219,227.8a.67.67,0,0,1,.16,1.19L215,231.83a.72.72,0,0,0-.3.55l-.05,5.1a.68.68,0,0,1-1.09.52l-4-3.15a.69.69,0,0,0-.62-.11L204,236.26a.67.67,0,0,1-.83-.87l1.75-4.78a.65.65,0,0,0-.08-.62l-3-4.16a.67.67,0,0,1,.57-1.06l5.09.19A.68.68,0,0,0,208.15,224.69Z" style="fill:#FFD524"></path><polygon points="194.78 377.55 206.39 375.85 205.42 380.49 195.83 381.78 194.78 377.55" style="fill:#fff;opacity:0.6000000000000001;isolation:isolate"></polygon><polygon points="229.17 377.03 240.31 373.34 240.16 378.08 230.94 381.02 229.17 377.03" style="fill:#fff;opacity:0.6000000000000001;isolation:isolate"></polygon><path d="M224.39,174c4.38,2.15,7.25,4.85,5.72,14.11s5.15,7.74,4.3,15.31,3.7,6.77,2.73,13.44" style="fill:none;stroke:#2e353a;stroke-linecap:round;stroke-linejoin:round;stroke-width:0.41015599999999997px"></path><path d="M193.41,218.35c0-.8,0-1.62,0-2.48-.05-1.87-.12-3.88-.22-6.06v-.18l1.48-.55C194.78,212.18,194.54,215.93,193.41,218.35Z" style="opacity:0.2;isolation:isolate"></path><path d="M174,225.53c.8,5.23-2.53,14.08-7.09,22.26" style="fill:none;stroke:#FFD524;stroke-linecap:round;stroke-miterlimit:10;stroke-width:0.8203119999999999px"></path><path d="M174.8,228.42c2.64,4.59,2.75,14,1.47,23.32" style="fill:none;stroke:#FFD524;stroke-linecap:round;stroke-miterlimit:10;stroke-width:0.8203119999999999px"></path><path d="M194.63,209.77a7.15,7.15,0,0,1-.18,1.38c-.11.44-.65,3-1.09,3.08,0,0-2.13.36-5,1-5.71,1.25-14.41,5.21-15.46,7.79-2.1,5.19,12.61,17.65,12.61,17.65l-3.91,3.15S165.3,232.66,163.66,223s19.69-18,29.22-18.47c.39,0,1,1.49,1.09,1.73A8.63,8.63,0,0,1,194.63,209.77Z" style="fill:#ebb376"></path><path d="M157.82,248.14s2.93-19.57,10.56-22.18c2.94-1,5,0,6.42,2.46" style="fill:none;stroke:#FFD524;stroke-linecap:round;stroke-miterlimit:10;stroke-width:0.8203119999999999px"></path><path d="M151,237.73s9.84-17.17,17.89-16.83c3.11.13,4.67,1.88,5.09,4.63" style="fill:none;stroke:#FFD524;stroke-linecap:round;stroke-miterlimit:10;stroke-width:0.8203119999999999px"></path><polygon points="149.58 235.42 169.5 247.85 154.19 278.94 129.57 263.63 149.58 235.42" style="fill:#FFD524"></polygon><polygon points="149.58 235.42 133.91 263.78 154.19 278.94 129.57 263.63 149.58 235.42" style="opacity:0.30000000000000004;isolation:isolate"></polygon><polygon points="155.66 246.5 178.74 250.84 175.76 285.37 147.25 280.04 155.66 246.5" style="fill:#FFD524"></polygon><polygon points="155.66 246.5 178.74 250.84 175.76 285.37 147.25 280.04 155.66 246.5" style="opacity:0.30000000000000004;isolation:isolate"></polygon><polygon points="155.66 246.5 151.36 278.61 175.76 285.37 147.25 280.04 155.66 246.5" style="opacity:0.30000000000000004;isolation:isolate"></polygon><path d="M180,236l5.53,4.72s1.95-.6,3,3.81,1.23,6.85-2.36,8-4.82,1.13-4.82,0,1.2-7.83,1.2-7.83l-5.41-4.78Z" style="fill:#ebb376"></path><circle cx="140.66" cy="139.11" r="15.61" style="fill:#FFD524"></circle><rect x="117" y="354.42" width="164" height="31.87" style="fill:#FFD524"></rect><rect x="117" y="354.42" width="164" height="31.87" style="fill:#fff;opacity:0.4;isolation:isolate"></rect><path d="M185.92,133.54c0,1.11-.82,2-2.49,2a3.69,3.69,0,0,1-2.4-.8l.43-.74a3,3,0,0,0,2,.7c1,0,1.55-.44,1.55-1.16s-.5-1.14-1.62-1.14h-.53v-.66l1.65-2h-3.15v-.81h4.33v.63l-1.72,2.12C185.25,131.79,185.92,132.53,185.92,133.54Z" style="fill:#fff"></path><path d="M192.5,133.86h-1.25v1.61h-.91v-1.61H186.7v-.65l3.35-4.29h1l-3.21,4.14h2.52v-1.43h.88v1.43h1.25Z" style="fill:#fff"></path><path d="M197.44,133.54c0,1.11-.82,2-2.48,2a3.7,3.7,0,0,1-2.41-.8L193,134a3,3,0,0,0,2,.7c1,0,1.54-.44,1.54-1.16s-.5-1.14-1.62-1.14h-.52v-.66l1.64-2h-3.15v-.81h4.33v.63l-1.72,2.12C196.77,131.79,197.44,132.53,197.44,133.54Z" style="fill:#fff"></path><path d="M216.33,128.92v6.55h-.92v-5.74h-1.48v-.81Z" style="fill:#fff"></path><path d="M222.85,133.48a2.13,2.13,0,0,1-2.33,2.07c-1.76,0-2.75-1.18-2.75-3.27,0-2.24,1.26-3.44,3.1-3.44a3.17,3.17,0,0,1,1.63.38l-.35.74a2.25,2.25,0,0,0-1.26-.31c-1.33,0-2.18.83-2.18,2.47a1.85,1.85,0,0,0,0,.23,2.17,2.17,0,0,1,1.88-.86A2,2,0,0,1,222.85,133.48Zm-.91,0c0-.77-.58-1.27-1.5-1.27a1.36,1.36,0,0,0-1.51,1.28c0,.67.55,1.26,1.56,1.26A1.3,1.3,0,0,0,221.94,133.52Z" style="fill:#fff"></path><path d="M225.59,128.92v6.55h-.93v-5.74h-1.48v-.81Z" style="fill:#fff"></path><path d="M229.69,132.56l-1.2,1.22v1.69h-.93v-6.55h.93v3.66l3.56-3.66h1.07l-2.8,3,3,3.6h-1.1Z" style="fill:#fff"></path><path d="M254.48,128.92v.63l-2.65,5.92h-1l2.6-5.74h-3v1.17h-.9v-2Z" style="fill:#fff"></path><path d="M260.2,133.48a2.13,2.13,0,0,1-2.33,2.07c-1.76,0-2.75-1.18-2.75-3.27,0-2.24,1.26-3.44,3.1-3.44a3.17,3.17,0,0,1,1.63.38l-.36.74a2.2,2.2,0,0,0-1.25-.31c-1.33,0-2.19.83-2.19,2.47a1.85,1.85,0,0,0,0,.23,2.2,2.2,0,0,1,1.89-.86A2,2,0,0,1,260.2,133.48Zm-.91,0c0-.77-.58-1.27-1.5-1.27a1.36,1.36,0,0,0-1.51,1.28c0,.67.54,1.26,1.55,1.26A1.3,1.3,0,0,0,259.29,133.52Z" style="fill:#fff"></path><path d="M266,133.48a2.12,2.12,0,0,1-2.32,2.07c-1.77,0-2.76-1.18-2.76-3.27,0-2.24,1.27-3.44,3.1-3.44a3.17,3.17,0,0,1,1.63.38l-.35.74a2.25,2.25,0,0,0-1.26-.31c-1.33,0-2.18.83-2.18,2.47a1.85,1.85,0,0,0,0,.23,2.18,2.18,0,0,1,1.88-.86A2,2,0,0,1,266,133.48Zm-.91,0c0-.77-.58-1.27-1.5-1.27a1.36,1.36,0,0,0-1.51,1.28c0,.67.55,1.26,1.56,1.26A1.3,1.3,0,0,0,265.07,133.52Z" style="fill:#fff"></path><rect x="178.73" y="148.42" width="43.2" height="7.5" rx="1.53" style="fill:#FFD524"></rect><rect x="225.63" y="148.42" width="43.2" height="7.5" rx="1.53" style="fill:#FFD524"></rect><rect x="178.73" y="148.42" width="43.2" height="7.5" rx="1.53" style="fill:#fff;opacity:0.6000000000000001;isolation:isolate"></rect><rect x="225.63" y="148.42" width="43.2" height="7.5" rx="1.53" style="fill:#fff;opacity:0.6000000000000001;isolation:isolate"></rect><rect x="138.91" y="363.32" width="13.03" height="13.03" rx="1.83" style="fill:#FFD524"></rect><rect x="175.18" y="363.32" width="13.03" height="13.03" rx="1.83" style="fill:#FFD524"></rect><rect x="211.45" y="363.32" width="13.03" height="13.03" rx="1.83" style="fill:#FFD524"></rect><rect x="247.72" y="363.32" width="13.03" height="13.03" rx="1.83" style="fill:#FFD524"></rect><g style="opacity:0.6000000000000001;isolation:isolate"><rect x="138.91" y="363.32" width="13.03" height="13.03" rx="1.83" style="fill:#fff"></rect><rect x="175.18" y="363.32" width="13.03" height="13.03" rx="1.83" style="fill:#fff"></rect><rect x="211.45" y="363.32" width="13.03" height="13.03" rx="1.83" style="fill:#fff"></rect><rect x="247.72" y="363.32" width="13.03" height="13.03" rx="1.83" style="fill:#fff"></rect></g></g><g id="freepik--Bubble--inject-52"><rect x="384.1" y="127.72" width="27.12" height="27.12" rx="4.06" style="fill:#FFD524"></rect><path d="M404.59,135.94c-2.92-3.42-6.71,1.88-6.71,1.88s-3.8-5.3-6.72-1.88c-2.63,3.08,2,9.24,6.72,11.94C402.55,145.18,407.22,139,404.59,135.94Z" style="fill:#fff"></path><path d="M392.38,154s-.25,4.38-5.38,8.25a16.51,16.51,0,0,0,9.38-8.25Z" style="fill:#FFD524"></path></g><g id="freepik--Character--inject-52"><path d="M386,197.88,382.13,186a4.4,4.4,0,0,1-1.11-1.81c-.27-1,.48-9.26,1-9.89s7-1.12,7.75-.75-1,8.13-1.12,9.25a8.3,8.3,0,0,1-1.13,2.69l4.13,10.4Z" style="fill:#ebb376"></path><path d="M392.17,224.1c-6.28,3.12-21.19-4.62-27.34-10.1-2.51-2.23-4.54-3.93-4.54-3.93l4.52-12.79L366,194c4,2.51,14.72,14.51,18.19,14.51S381,192.33,381,192.33l10.31-2S404.1,218.18,392.17,224.1Z" style="fill:#FFD524"></path><path d="M392.17,224.1c-5.72,2.84-18.59-3.32-25.49-8.58-.68-.52-1.3-1-1.85-1.52-2.51-2.23-4.54-3.93-4.54-3.93l2.44-6.91,2.08-5.88L366,194c4,2.51,14.72,14.51,18.19,14.51S381,192.33,381,192.33l10.31-2S404.1,218.18,392.17,224.1Z" style="fill:#fff;opacity:0.5;isolation:isolate"></path><path d="M375.84,183.08a.82.82,0,0,0,.83.92h9.14a1.05,1.05,0,0,0,1-.92l2.05-18a.93.93,0,0,0-.83-1h-9.14a1.18,1.18,0,0,0-1,1Z" style="fill:#2e353a"></path><polygon points="378.35 165.21 376.36 182.79 385.38 182.79 387.37 165.21 378.35 165.21" style="fill:#FFD524"></polygon><path d="M375.84,183.08a.82.82,0,0,0,.83.92h8.14a1.05,1.05,0,0,0,1-.92l2.05-18a.93.93,0,0,0-.83-1h-8.14a1.18,1.18,0,0,0-1,1Z" style="fill:#fff;opacity:0.30000000000000004;isolation:isolate"></path><path d="M366.68,215.52c-.68-.52-1.3-1-1.85-1.52-2.51-2.23-4.54-3.93-4.54-3.93l2.44-6.91,1.52-3.54S367.76,208.23,366.68,215.52Z" style="opacity:0.2;isolation:isolate"></path><polygon points="382.33 410.15 375.67 411.32 372.94 402.24 370.45 393.9 378.13 391.22 380.36 401.24 382.33 410.15" style="fill:#e4897b"></polygon><polygon points="380.39 401.45 372.97 402.42 370.46 394 378.13 391.27 380.39 401.45" style="opacity:0.2;isolation:isolate"></polygon><polygon points="337.86 413 331.1 413 329.99 403.58 328.98 394.94 337.01 393.63 337.47 403.89 337.86 413" style="fill:#e4897b"></polygon><polygon points="337.47 404.1 329.99 403.77 328.98 395.03 337.01 393.68 337.47 404.1" style="opacity:0.2;isolation:isolate"></polygon><path d="M381,396.16l-10.95,1.93c-11.05-27.53-18.91-50.51-24.46-69.58-3-10.29-5.32-19.44-7.11-27.56l.5,30V399H327.88C300.83,270,320,240.52,320,240.52L352.36,235a146.33,146.33,0,0,1,2.71,18.11l1.46,10.7,12.65,65.32Z" style="fill:#FFD524"></path><g style="opacity:0.5;isolation:isolate"><path d="M381,396.16l-10.95,1.93c-10.09-25.15-17.53-46.5-23-64.54l-1.5-5c-2.71-9.34-4.6-17.74-6.6-25.28v0a10.54,10.54,0,0,0-.51-2.26l.51,30V399H327.88c-16.52-78.79-15.8-120.45-12.74-140.95,2-13.07,4.86-17.53,4.86-17.53L352.36,235a146.33,146.33,0,0,1,2.71,18.11l.44,3.22,1,7.48,12.65,65.32Z" style="fill:#fff"></path></g><polygon points="368.35 396.74 381.94 392.24 381.75 398.01 370.52 401.6 368.35 396.74" style="fill:#FFD524"></polygon><polygon points="368.35 396.74 381.94 392.24 381.75 398.01 370.52 401.6 368.35 396.74" style="fill:#fff;opacity:0.6000000000000001;isolation:isolate"></polygon><polygon points="326.43 397.37 340.59 395.29 339.4 400.95 327.72 402.53 326.43 397.37" style="fill:#FFD524"></polygon><polygon points="326.43 397.37 340.59 395.29 339.4 400.95 327.72 402.53 326.43 397.37" style="fill:#fff;opacity:0.6000000000000001;isolation:isolate"></polygon><path d="M347.1,333.55l-1.5-5c-2.71-9.34-4.6-17.74-6.6-25.28v0l-1.15-13.88s6.91-15.25,4.32-26c.24.61,4.81,12.3,3,24A339,339,0,0,0,347.1,333.55Z" style="opacity:0.2;isolation:isolate"></path><path d="M337.86,413s.67,8.41,0,9.24-15.69.26-17.86-1.07,1.67-3.58,3.83-3.67,7.42-3.23,7.27-4.5S337.86,413,337.86,413Z" style="fill:#e4897b"></path><path d="M326.43,416.38s-2.93,3.37-1.8,5.62H339v2H316S315.34,415.19,326.43,416.38Z" style="fill:#FFD524"></path><path d="M382.33,409.88s2.53,9,2,9.93-15.52,2.37-17.85,1.34,1.18-3.77,3.31-4.16,6.22-4.43,5.9-5.67S382.33,409.88,382.33,409.88Z" style="fill:#e4897b"></path><path d="M372.19,415.54s-2.45,3.73-1,5.81l14.24-1.93.27,2-22.79,3.09S361.05,415.85,372.19,415.54Z" style="fill:#FFD524"></path><path d="M355.51,256.32l-40.37,1.73c2-13.07,4.86-17.53,4.86-17.53L352.36,235a146.33,146.33,0,0,1,2.71,18.11Z" style="opacity:0.2;isolation:isolate"></path><path d="M351.1,179.35a1.57,1.57,0,0,1-.26.19,11.92,11.92,0,0,1-4.18,2.05c-4.42,1-7.44.41-9.41-1.59h0c-2.76-3-3.45-8.31-3.06-14.72a24.08,24.08,0,0,1,1.4-7.49s0-.1,0-.12.07-.19.11-.27a8.75,8.75,0,0,1,6.43-5.34,17.77,17.77,0,0,1,3.79-.42C358.43,151.51,360.68,172.21,351.1,179.35Z" style="fill:#ebb376"></path><path d="M350.84,179.54a11.61,11.61,0,0,1-4.18,1.87c-4.42,1-7.44.27-9.41-1.76a12.46,12.46,0,0,0,7.93-.65C347,178.18,349,178.6,350.84,179.54Z" style="opacity:0.2;isolation:isolate"></path><path d="M352.11,190.83c.77,3.56-3.84,5-3.84,5-7.54-3.22-8.94-7.23-8.94-7.23,6.29-3.28,4.47-12.56,4.47-12.56l1.28.63,9,1.76s-2.49,4.78-2.82,5.87v0C349.54,190,352.11,190.83,352.11,190.83Z" style="fill:#ebb376"></path><path d="M335.57,157.71s-.68,8.76,7.62,12.53c0,0,3.57,9.1,8.82,9.23,7.16.18,13.47-10,11-20.39C359.78,145.63,339.4,144.54,335.57,157.71Z" style="fill:#2e353a"></path><path d="M339,167.71a3.73,3.73,0,0,1,4-3.45c2.65.26,4,5.67-2.6,7C339.47,171.5,338.93,170.58,339,167.71Z" style="fill:#ebb376"></path><path d="M337.38,157.25s-3.5.75-5.75-1.37-1.63-7.13,2.87-8.13,7.19,1.51,7.6,3.88S340.91,157.4,337.38,157.25Z" style="fill:#2e353a"></path><path d="M333.75,149.63c-1.38,0-2.5,1.47-2.5,3.29s1.12,3.29,2.5,3.29,2.51-1.47,2.51-3.29S335.14,149.63,333.75,149.63Z" style="fill:#FFD524"></path><path d="M356,153.83s2.14-5,10.32-4.2,11.68,10.2,8,16.29-1.83,9.61.25,10.76,2.53,4.82-.82,6.32-2,5,0,4.6c0,0-1.18,1-4.09,0s-1.84-4.72-.34-6.39-3.91-1.58-5.25-6.17,1.09-11-2.91-10.84S354.75,156.92,356,153.83Z" style="fill:#2e353a"></path><path d="M335.56,187.6s7.29-3.93,15.28-1.18S357,194.5,357,194.5Z" style="fill:#FFD524"></path><path d="M335.56,187.6s7.29-3.93,15.28-1.18S357,194.5,357,194.5Z" style="fill:#fff;opacity:0.5;isolation:isolate"></path><path d="M366,194s-6.91-2.71-13.1-4.41A104.33,104.33,0,0,0,338.2,187a97.31,97.31,0,0,0-14.08-.56c.14,2.26.23,4.4.32,6.41.12,2.66.2,5.11.26,7.39.11,4.28.1,7.94,0,11.2a109.54,109.54,0,0,1-2.56,21.07l-7,17L357,254.83l-2.38-16.67h0c7-20.22,9.92-30.87,11-36.91C366.92,194.52,366,194,366,194Z" style="fill:#FFD524"></path><path d="M365.69,201.25c-.56,3-1.58,7.19-3.33,13.14s-4.24,13.66-7.71,23.77L357,254.83l-2.88-.37-1-.13-5.51-.7-1-.13-5.23-.66-1-.13-7-.89-1-.12-8.68-1.11-1-.13-7.58-1,7-17a109.64,109.64,0,0,0,2.56-21.07c0-.77.05-1.56.06-2.38.05-2.64,0-5.55-.05-8.82,0-1.19-.07-2.44-.12-3.73s-.08-2.4-.14-3.66c-.09-2-.18-4.15-.32-6.41,2.51-.08,5-.07,7.52.05l1,0q2.79.15,5.56.46l.25,0,1,.1q4.19.48,8.33,1.29l1,.2q2.07.42,4.11.93l1.88.54,1,.29c2,.62,4,1.29,5.66,1.88l1,.34c2.17.79,3.63,1.36,3.63,1.36S366.92,194.52,365.69,201.25Z" style="fill:#fff;opacity:0.6000000000000001;isolation:isolate"></path><path d="M348.77,188.65A252.9,252.9,0,0,1,342,233.9l-.61,18.94-1-.13.6-18.94c5.34-22.66,6.52-39.31,6.78-45.32Z" style="fill:#FFD524"></path><path d="M347.2,233.75l.41,19.88-1-.13-.42-19.92,0-.09c4.46-12,7.46-34.53,8.53-43.37l1,.29C354.64,199.38,351.64,221.69,347.2,233.75Z" style="fill:#FFD524"></path><path d="M352.18,235.42l2,19-1-.13-2-19.09.07-.13c4.89-10.18,8.73-33.25,10.16-42.82l1,.34C360.88,202.33,357.06,225.13,352.18,235.42Z" style="fill:#FFD524"></path><path d="M339.45,187.16c-.18,7.74-.87,27.66-3.39,45.24l-2.64,19.42-1-.12,2.64-19.43c2.52-17.6,3.21-37.55,3.38-45.21Z" style="fill:#FFD524"></path><path d="M332.64,186.57c-.1,10.47-.59,35.68-3,44.86l-5.9,19.16-1-.13,5.94-19.3c2.34-9,2.84-34.26,2.95-44.64Z" style="fill:#FFD524"></path><g style="opacity:0.4;isolation:isolate"><path d="M348.77,188.65A252.9,252.9,0,0,1,342,233.9l-.61,18.94-1-.13.6-18.94c5.34-22.66,6.52-39.31,6.78-45.32Z" style="fill:#fff"></path><path d="M347.2,233.75l.41,19.88-1-.13-.42-19.92,0-.09c4.46-12,7.46-34.53,8.53-43.37l1,.29C354.64,199.38,351.64,221.69,347.2,233.75Z" style="fill:#fff"></path><path d="M352.18,235.42l2,19-1-.13-2-19.09.07-.13c4.89-10.18,8.73-33.25,10.16-42.82l1,.34C360.88,202.33,357.06,225.13,352.18,235.42Z" style="fill:#fff"></path><path d="M339.45,187.16c-.18,7.74-.87,27.66-3.39,45.24l-2.64,19.42-1-.12,2.64-19.43c2.52-17.6,3.21-37.55,3.38-45.21Z" style="fill:#fff"></path><path d="M332.64,186.57c-.1,10.47-.59,35.68-3,44.86l-5.9,19.16-1-.13,5.94-19.3c2.34-9,2.84-34.26,2.95-44.64Z" style="fill:#fff"></path></g><path d="M324.75,209.09c.05-2.64,0-5.55-.05-8.82,0-1.19-.07-2.44-.12-3.73a11,11,0,0,1,3.48-.7S329.44,204.52,324.75,209.09Z" style="opacity:0.2;isolation:isolate"></path><path d="M318.05,231.23l3.07,8.32s2.42.54.88,5.83-2.79,8-7.28,7.07-5.79-1.68-5.12-2.88,6-7.61,6-7.61l-2.89-8.31Z" style="fill:#ebb376"></path><path d="M324.12,186.47s7.43,6.28,1.88,17.38c0,0-10.08,5.68-10.83,6.78s6.22,23.71,6.22,23.71-2.14,5.91-9.73,4.14c0,0-11.41-23.33-12.41-30.9S324.12,186.47,324.12,186.47Z" style="fill:#FFD524"></path><path d="M324.12,186.47s7.43,6.28,1.88,17.38c0,0-10.08,5.68-10.83,6.78s6.22,23.71,6.22,23.71-2.14,5.91-9.73,4.14c0,0-11.41-23.33-12.41-30.9S324.12,186.47,324.12,186.47Z" style="fill:#fff;opacity:0.5;isolation:isolate"></path></g></svg>